<svg xmlns="http://www.w3.org/2000/svg" version="1.1" xmlns:xlink="http://www.w3.org/1999/xlink" xmlns:svgjs="http://svgjs.dev/svgjs" width="2000" height="1500" viewBox="0 0 2000 1500"><rect width="2000" height="1500" fill="#0f172a"></rect><g transform="matrix(0.75,0,0,0.75,249.090909090909,584.7397296616722)"><svg viewBox="0 0 396 87" data-background-color="#0f172a" preserveAspectRatio="xMidYMid meet" height="439" width="2000" xmlns="http://www.w3.org/2000/svg" xmlns:xlink="http://www.w3.org/1999/xlink"><g id="tight-bounds" transform="matrix(1,0,0,1,0.24000000000003752,0.16786186616405985)"><svg viewBox="0 0 395.5199999999999 86.66427626767187" height="86.66427626767187" width="395.5199999999999"><g><svg viewBox="0 0 543.897508067733 119.17598073543768" height="86.66427626767187" width="395.5199999999999"><g transform="matrix(1,0,0,1,0,16.470775919297104)"><svg viewBox="0 0 395.52 86.23442889684347" height="86.23442889684347" width="395.52"><g id="textblocktransform"><svg viewBox="0 0 395.52 86.23442889684347" height="86.23442889684347" width="395.52" id="textblock"><g><svg viewBox="0 0 395.52 86.23442889684347" height="86.23442889684347" width="395.52"><g transform="matrix(1,0,0,1,0,0)"><svg width="395.52" viewBox="0.59 -31.88 150.03 32.71" height="86.23442889684347" data-palette-color="#f1f5f9"><path d="M0.59 0L12.3 0 12.62-1.95 8.15-2.78 9.69-23.61 18.07-0.76 21.19-1.22 30.49-24.51 31.86-2.95 27.81-1.81 27.54 0 40.63 0 40.87-1.95 36.43-2.78 35.16-27.59 39.26-28.52 39.5-30.37 29.86-30.37 28.13-26.44 20.63-7.64 14.23-25.63 12.33-30.37 2.49-30.37 2.25-28.52 6.71-27.49 4.93-2.95 0.85-1.81 0.59 0ZM44.46-17.77L44.46-6.52Q44.46-2.78 45.91-1.11 47.36 0.56 49.9 0.56L49.9 0.56Q54.29 0.56 56.88-3.2L56.88-3.2 57.2-3.2 57.2-2.98Q57.2-1.39 58.12-0.42 59.03 0.56 60.79 0.56L60.79 0.56Q61.86 0.56 62.6 0.46 63.33 0.37 64.48 0.1L64.48 0.1 64.69-1.93 63.57-2.17Q62.57-2.39 62.06-2.64 61.55-2.88 61.24-3.48 60.94-4.08 60.94-5.25L60.94-5.25 60.94-20.97 60.42-21.56 53.24-20.9 53-18.65 56.88-17.63 56.88-4.66Q56-3.76 54.94-3.27 53.88-2.78 52.34-2.78L52.34-2.78Q48.58-2.78 48.58-7.74L48.58-7.74 48.58-20.97 47.97-21.56 41.43-21.04 41.09-19.12 44.46-17.77ZM73.38 0.83Q75.26 0.83 77.01 0.02 78.75-0.78 79.83-2.21 80.9-3.64 80.9-5.37L80.9-5.37Q80.9-7.01 80.05-8.26 79.19-9.52 77.99-10.38 76.78-11.23 74.82-12.3L74.82-12.3Q73.21-13.21 72.31-13.82 71.41-14.43 70.8-15.22 70.19-16.02 70.19-16.99L70.19-16.99Q70.19-18.21 70.93-19.07 71.67-19.92 72.92-19.92L72.92-19.92Q74.34-19.92 75.31-18.54 76.29-17.16 76.73-14.38L76.73-14.38Q78.32-14.48 79.23-15.36 80.15-16.24 80.15-17.63L80.15-17.63Q80.15-18.85 79.4-19.84 78.66-20.83 77.29-21.4 75.92-21.97 74.16-21.97L74.16-21.97Q71.85-21.97 70.2-20.98 68.55-20 67.72-18.51 66.89-17.02 66.89-15.5L66.89-15.5Q66.89-13.75 67.78-12.4 68.67-11.06 69.93-10.14 71.19-9.23 73.19-8.08L73.19-8.08Q74.65-7.25 75.47-6.7 76.29-6.15 76.83-5.48 77.36-4.81 77.36-4.03L77.36-4.03Q77.36-2.76 76.46-2.16 75.56-1.56 74.14-1.56L74.14-1.56Q72.63-1.56 71.36-2.77 70.09-3.98 69.28-6.37L69.28-6.37Q67.91-6.27 67.11-5.3 66.3-4.32 66.3-2.95L66.3-2.95Q66.3-1.98 67.18-1.1 68.06-0.22 69.67 0.31 71.28 0.83 73.38 0.83L73.38 0.83ZM88.81-26.12Q89.59-26.12 90.29-26.53 90.98-26.93 91.39-27.61 91.79-28.3 91.79-29.1L91.79-29.1Q91.79-30.27 90.91-31.08 90.03-31.88 88.81-31.88L88.81-31.88Q87.64-31.88 86.77-31.09 85.91-30.3 85.91-29.15L85.91-29.15Q85.91-28.34 86.3-27.65 86.69-26.95 87.36-26.54 88.03-26.12 88.81-26.12L88.81-26.12ZM83 0L94.72 0 94.99-1.95 91.08-2.83 91.08-21 90.47-21.61 83.61-21.04 83.29-19.19 86.98-17.85 86.98-2.83 83.29-1.93 83 0ZM106.12 0.73Q108.39 0.73 110.52-0.16 112.66-1.05 113.69-2.27L113.69-2.27 113.08-3.69Q111.98-2.98 110.88-2.59 109.78-2.2 108.14-2.2L108.14-2.2Q105.78-2.2 104.14-3.81 102.5-5.42 101.7-7.79 100.89-10.16 100.89-12.38L100.89-12.38Q100.89-14.58 101.49-16.22 102.09-17.87 103.18-18.77 104.26-19.68 105.7-19.68L105.7-19.68Q107.12-19.68 108.01-18.54 108.9-17.41 109.63-15.67L109.63-15.67Q111.12-15.77 111.93-16.46 112.73-17.14 112.73-18.24L112.73-18.24Q112.73-19.24 112.09-20.09 111.44-20.95 110.12-21.46 108.8-21.97 106.85-21.97L106.85-21.97Q104.16-21.97 101.78-20.5 99.4-19.02 97.94-16.32 96.47-13.62 96.47-10.13L96.47-10.13Q96.47-7.2 97.67-4.71 98.87-2.22 101.06-0.74 103.26 0.73 106.12 0.73L106.12 0.73ZM121.66 0L132.41 0 132.77-2.03 128.72-2.86 135.85-12.92 142.25-2.95 138.34-1.81 138.02 0 150.3 0 150.62-1.95 147.32-2.78 139-16.04 147.25-27.59 150.35-28.52 150.55-30.37 139.93-30.37 139.61-28.47 143.76-27.49 137.14-18.31 131.11-27.37 134.95-28.47 135.19-30.37 122.67-30.37 122.37-28.47 125.72-27.42 133.99-15.01 125.06-2.95 121.96-1.86 121.66 0Z" opacity="1" transform="matrix(1,0,0,1,0,0)" fill="#f1f5f9" class="wordmark-text-0" data-fill-palette-color="primary" id="text-0"></path></svg></g></svg></g></svg></g></svg></g><g transform="matrix(1,0,0,1,415.8778790362512,0)"><svg viewBox="0 0 128.01962903148188 119.17598073543768" height="119.17598073543768" width="128.01962903148188"><g><svg xmlns="http://www.w3.org/2000/svg" xmlns:xlink="http://www.w3.org/1999/xlink" version="1.1" x="0" y="0" viewBox="2.749 2.904 4.502000000000001 4.191" enable-background="new 0 0 10 10" xml:space="preserve" height="119.17598073543768" width="128.01962903148188" class="icon-icon-0" data-fill-palette-color="accent" id="icon-0"><g fill="#8ddce5" data-fill-palette-color="accent"><path d="M7.174 4.457c-0.043 0-0.078 0.035-0.078 0.078v1.009c0 0.044 0.035 0.078 0.078 0.078s0.077-0.034 0.077-0.078V4.534C7.251 4.491 7.217 4.457 7.174 4.457z" fill="#8ddce5" data-fill-palette-color="accent"></path><path d="M6.475 3.758v2.483c0 0.044 0.035 0.079 0.077 0.079 0.043 0 0.078-0.035 0.078-0.079V3.758c0-0.042-0.035-0.077-0.078-0.077C6.51 3.681 6.475 3.715 6.475 3.758z" fill="#8ddce5" data-fill-palette-color="accent"></path><path d="M5.854 2.981v4.036c0 0.043 0.035 0.078 0.078 0.078s0.077-0.035 0.077-0.078V2.981c0-0.043-0.034-0.077-0.077-0.077S5.854 2.938 5.854 2.981z" fill="#8ddce5" data-fill-palette-color="accent"></path><path d="M5.232 3.137v3.726c0 0.043 0.035 0.077 0.078 0.077 0.043 0 0.077-0.034 0.077-0.077V3.137c0-0.043-0.034-0.078-0.077-0.078C5.267 3.059 5.232 3.094 5.232 3.137z" fill="#8ddce5" data-fill-palette-color="accent"></path><path d="M4.612 3.913v2.174c0 0.042 0.035 0.077 0.078 0.077 0.042 0 0.077-0.035 0.077-0.077V3.913c0-0.043-0.035-0.077-0.077-0.077C4.646 3.836 4.612 3.87 4.612 3.913z" fill="#8ddce5" data-fill-palette-color="accent"></path><path d="M3.991 3.137v3.726c0 0.043 0.035 0.077 0.077 0.077 0.043 0 0.078-0.034 0.078-0.077V3.137c0-0.043-0.035-0.078-0.078-0.078C4.026 3.059 3.991 3.094 3.991 3.137z" fill="#8ddce5" data-fill-palette-color="accent"></path><path d="M3.37 3.913v2.174c0 0.042 0.034 0.077 0.077 0.077 0.043 0 0.078-0.035 0.078-0.077V3.913c0-0.043-0.034-0.077-0.078-0.077C3.404 3.836 3.37 3.87 3.37 3.913z" fill="#8ddce5" data-fill-palette-color="accent"></path><path d="M2.749 4.534v0.932c0 0.042 0.035 0.077 0.078 0.077 0.042 0 0.077-0.035 0.077-0.077V4.534c0-0.043-0.035-0.078-0.077-0.078C2.784 4.457 2.749 4.491 2.749 4.534z" fill="#8ddce5" data-fill-palette-color="accent"></path></g></svg></g></svg></g></svg></g><defs></defs></svg><rect width="395.5199999999999" height="86.66427626767187" fill="none" stroke="none" visibility="hidden"></rect></g></svg></g></svg>